<svg id="Layer_1" data-name="Layer 1" xmlns="http://www.w3.org/2000/svg" viewBox="0 0 544.1 68"><defs><style>.cls-1{fill:#fff;}</style></defs><path class="cls-1" d="M239.55-77.1h8.2v5.3c-.3.9-2.1,5.3-9.6,5.3s-12.4-5.5-12.4-14.6c0-8.8,4.3-13.7,13.1-13.7a11.09,11.09,0,0,1,7,2.3l.3,4.8h3.2V-97.9h-2.7l-.6,2a14.07,14.07,0,0,0-7.7-2.5c-10.6,0-17.2,6.4-17.2,17.3s5.8,18.2,16,18.2c5.9,0,9.2-2.3,11-4.4l.6,3.7h2.6V-79.9h-11.9v2.8Z" transform="translate(-121.45 114.6)"/><path class="cls-1" d="M278.65-81c0-6.6-3.1-9.5-9-9.5a12.08,12.08,0,0,0-7.1,2.4l-.4-1.9h-2.7l-.2,8.2h3.2l.2-3.4a8.32,8.32,0,0,1,5.8-2.2c4.3,0,5.9,1.9,5.9,6.5v1.8c-6.6.7-17.4,1.1-17.4,8.7,0,4.7,3.2,7.5,9.2,7.5,5.8,0,7.8-3.2,8.3-4.1l.6,3.3h6.4l.2-2.9-3.1-.2V-81Zm-4.2,11.3c-.2.4-1.9,3.9-7,3.9-4.1,0-6.2-1.7-6.2-5,0-4.8,6.8-5.1,13.1-5.5v6.6Z" transform="translate(-121.45 114.6)"/><polygon class="cls-1" points="180.8 47.7 168.6 47.7 184.1 27.6 184.1 24.8 168 24.8 164.6 24.6 164.6 24.8 164.4 32.1 167.4 32.1 167.7 28 178.9 28 163.4 48.1 163.4 50.9 184 50.9 184.3 43.2 181.2 43 180.8 47.7"/><path class="cls-1" d="M324.85-90.6c-5.7,0-8.2,3-8.7,3.7l-.4-2.9h-6.6l-.2,3.1,3.1.2v32.7l-3.1.2.2,3.1h10l.2-2.9-3.1-.2V-65.4s2.4,2.5,8,2.5c8.1,0,12.3-6.5,12.3-15.1C336.65-86.2,332-90.6,324.85-90.6Zm-2,24.5c-4.1,0-6.2-1.9-6.6-2.4V-83.7a8.3,8.3,0,0,1,7.1-3.7c5.7,0,8.9,2.4,8.9,9.4C332.35-70.8,329.55-66.1,322.85-66.1Z" transform="translate(-121.45 114.6)"/><path class="cls-1" d="M346-85.8h0l-.4-4h-6.4l-.2,3.1,3.3.2V-67l-3.1.2.2,3.1h10.5l.2-2.9-3.6-.2V-83.2s1.9-4,6.1-4c.8,0,1.5.1,2.1.1l.3,5h3v-7.7a15.39,15.39,0,0,0-4.6-.7C348.45-90.6,346-85.8,346-85.8Z" transform="translate(-121.45 114.6)"/><path class="cls-1" d="M373.85-90.6c-8.5,0-13,5.1-13,13.6s4.4,14,13,14c8.4,0,13-5.5,13-14S382.35-90.6,373.85-90.6Zm0,24.6c-6,0-8.6-4.2-8.6-10.9s2.7-10.6,8.6-10.6,8.6,3.9,8.6,10.6S379.85-66,373.85-66Z" transform="translate(-121.45 114.6)"/><path class="cls-1" d="M500-83.1c0-5.5-2.5-7.5-7.5-7.5-5.5,0-8.3,2.7-8.8,3.2-1-2.2-3.3-3.2-6.6-3.2a11,11,0,0,0-8.2,3.3l-.3-2.6H462l-.2,3.1,3.1.2v19.8h-37.1V-83.2c0-5.5-2.5-7.5-7.5-7.5-5.5,0-8.3,2.7-8.8,3.2-1-2.2-3.3-3.2-6.6-3.2a11,11,0,0,0-8.2,3.3l-.3-2.6h-6.6l-.2,3.1,3.1.2v19.6l-3.1.2.2,3.1h10l.2-2.9-3.1-.2V-84.5a9.29,9.29,0,0,1,6.7-2.7c3.1,0,4.6.9,4.6,4.6v18.8h7.2l.2-2.9-3.1-.2V-83.3c0-.4-.1-.9-.1-1.3a9.38,9.38,0,0,1,6.6-2.7c3.1,0,4.7.9,4.7,4.6v18.8h45.5V-84.6a9.29,9.29,0,0,1,6.7-2.7c3.1,0,4.6.9,4.6,4.6v18.8h7.2l.2-2.9-3.1-.2V-83.4c0-.4-.1-.9-.1-1.3a9.38,9.38,0,0,1,6.6-2.7c3.1,0,4.7.9,4.7,4.6V-64h7.2l.2-2.9-3.1-.2v-16Z" transform="translate(-121.45 114.6)"/><path class="cls-1" d="M528.45-79.2c0-7.6-3.9-11.4-10.9-11.4-7.5,0-12.5,5-12.5,13.8,0,9,5.1,13.9,13.2,13.9,7.1,0,9.9-4.5,9.9-4.5l-2-2.1a10,10,0,0,1-7.8,3.5c-5.4,0-8.8-3.2-9.2-9.8h18.6A8.58,8.58,0,0,0,528.45-79.2Zm-3.9.4h-15.3c.5-5.4,3.2-8.6,8.3-8.6,4.7,0,7.1,2.5,7.1,7.4A10.53,10.53,0,0,1,524.55-78.8Z" transform="translate(-121.45 114.6)"/><path class="cls-1" d="M556.25-102.9h-7.1l-.2,3.1,3.1.2V-88H552s-2.4-2.5-8-2.5c-8.1,0-12.3,5.4-12.3,14,0,8.2,4.9,13.7,12,13.7,5.7,0,8-2.9,8.5-3.6l.4,2.9h6.6l.2-2.9-3.1-.2v-36.3Zm-4.2,33.1a8.3,8.3,0,0,1-7.1,3.7c-5.7,0-8.9-3.7-8.9-10.5s2.8-10.7,9.4-10.7c4.2,0,6.3,2.1,6.6,2.5Z" transform="translate(-121.45 114.6)"/><path class="cls-1" d="M567.85-95a3.2,3.2,0,0,0,1.8-.5,2.57,2.57,0,0,0,.7-1.8,2.67,2.67,0,0,0-.7-1.8,3.08,3.08,0,0,0-1.9-.6,2.61,2.61,0,0,0-1.8.6,2.57,2.57,0,0,0-.7,1.8,2.27,2.27,0,0,0,.7,1.8A3.83,3.83,0,0,0,567.85-95Z" transform="translate(-121.45 114.6)"/><polygon class="cls-1" points="448.5 24.8 441.4 24.8 441.2 27.9 444.3 28.1 444.3 47.6 441.2 47.8 441.4 50.9 451.4 50.9 451.6 48 448.5 47.8 448.5 24.8"/><path class="cls-1" d="M654.45-76.4l-2.1,2.1,7.6,7.6h-61.2l-1-.1V-81c0-6.6-3.1-9.5-9-9.5a12.08,12.08,0,0,0-7.1,2.4l-.4-1.9h-2.7l-.2,8.2h3.2l.2-3.4a8.32,8.32,0,0,1,5.8-2.2c4.3,0,5.9,1.9,5.9,6.5v1.8c-6.6.7-17.4,1.1-17.4,8.7,0,4.7,3.2,7.5,9.2,7.5,5.8,0,7.9-3.2,8.3-4.1l.6,3.3h65.7l-7.6,7.6,2.1,2.1,11.2-11.2Zm-61,6.7c-.2.4-1.9,3.9-7,3.9-4.1,0-6.2-1.7-6.2-5,0-4.8,6.8-5.1,13.1-5.5v6.6Z" transform="translate(-121.45 114.6)"/><path class="cls-1" d="M121.45-80.6l34,34,34-34-34-34Zm43.9,15.3a14,14,0,0,1-10.2,4.2c-9,0-13-5.9-14.1-9.7a14.81,14.81,0,0,1-.6-7.1c.4-3.4,3.3-10.7,13.7-11.8v.4a28.05,28.05,0,0,0,2.2,10.7c-1.7-.1-8.8,0-9.8,7.1-.6,4.2,2.4,8.8,8.7,8.8,7.1,0,7.4-6,5.8-7.7s-4.9,0-4.9,0v-4.5h9.2v9.6Zm-5-38a24.92,24.92,0,0,1,4.3,14,24.92,24.92,0,0,1-4.3,14,24.92,24.92,0,0,1-4.3-14A24.92,24.92,0,0,1,160.35-103.3Z" transform="translate(-121.45 114.6)"/><path class="cls-1" d="M160.35-92.5a14.39,14.39,0,0,0-1.7,6.9,14.11,14.11,0,0,0,1.7,6.9,14.39,14.39,0,0,0,1.7-6.9A13.83,13.83,0,0,0,160.35-92.5Z" transform="translate(-121.45 114.6)"/></svg>